<svg preserveAspectRatio="xMidYMid meet" overflow="visible" style="display: block;" viewBox="0 0 145.243 21.497" fill="none" xmlns="http://www.w3.org/2000/svg">
<g id="Frame 2147206973">
<path id="Union" d="M19.0668 8.90891L24.2278 8.90885V19.0874H13.1891L13.2552 14.7866L8.94026 19.0874H0V12.0346L12.0422 0L19.643 0.307339L19.0668 8.90891Z" fill="var(--fill-0, black)"/>
<g id="Heading 1 &#226;&#134;&#146; The best tools on the internet,">
<path id="Vector" d="M139.112 17.3065V7.06317H141.867V8.8092H141.896C142.274 7.57728 143.05 6.99527 144.399 6.99527C144.728 6.99527 145.01 7.00497 145.243 7.01467V9.44941C145.029 9.43971 144.496 9.40091 144.011 9.40091C142.837 9.40091 141.974 10.2157 141.974 11.758V17.3065H139.112Z" fill="var(--fill-0, #0D0D0D)"/>
<path id="Vector_2" d="M133.546 17.5389C130.442 17.5389 128.424 15.3079 128.424 12.1942C128.424 9.07073 130.51 6.82999 133.449 6.82999C136.466 6.82999 138.493 9.01253 138.493 12.136V12.9023H131.208C131.257 14.4155 132.13 15.3952 133.633 15.3952C134.749 15.3952 135.515 14.8811 135.777 14.0857H138.387C138.008 16.1227 136.029 17.5389 133.546 17.5389ZM131.228 11.0787H135.797C135.651 9.79824 134.797 9.00283 133.507 9.00283C132.227 9.00283 131.383 9.79824 131.228 11.0787Z" fill="var(--fill-0, #0D0D0D)"/>
<path id="Vector_3" d="M128.494 7.06264V9.30337H126.399V14.1437C126.399 14.8421 126.622 15.0653 127.398 15.0653H128.494V17.306H126.825C124.575 17.306 123.537 16.4524 123.537 14.5899V9.30337H121.772V7.06264H123.537V4.269H126.399V7.06264H128.494Z" fill="var(--fill-0, #0D0D0D)"/>
<path id="Vector_4" d="M117.243 17.5588C114.585 17.5588 112.674 16.2881 112.499 14.0861H115.312C115.419 14.9785 116.079 15.5121 117.194 15.5121C118.252 15.5121 118.901 15.0658 118.901 14.4353C118.901 13.8921 118.407 13.572 117.573 13.4071L115.778 13.0579C113.789 12.6699 112.732 11.6611 112.732 10.0703C112.732 8.13025 114.41 6.84983 117.078 6.84983C119.726 6.84983 121.472 8.17875 121.53 10.3128H118.882C118.863 9.48827 118.164 8.87716 117.155 8.87716C116.176 8.87716 115.584 9.35246 115.584 9.96357C115.584 10.4874 116.04 10.8269 116.826 10.9918L118.766 11.3701C120.832 11.7775 121.782 12.6699 121.782 14.1734C121.782 16.2202 119.92 17.5588 117.243 17.5588Z" fill="var(--fill-0, #0D0D0D)"/>
<path id="Vector_5" d="M109.008 17.3064V7.06307H111.87V17.3064H109.008ZM110.434 5.77295C109.493 5.77295 108.805 5.12304 108.805 4.25003C108.805 3.37702 109.493 2.72711 110.434 2.72711C111.375 2.72711 112.064 3.37702 112.064 4.25003C112.064 5.12304 111.375 5.77295 110.434 5.77295Z" fill="var(--fill-0, #0D0D0D)"/>
<path id="Vector_6" d="M98.9318 17.3064V2.85322H101.919V14.7456H108.486V17.3064H98.9318Z" fill="var(--fill-0, #0D0D0D)"/>
<path id="Vector_7" d="M85.6754 21.361V19.1009H86.9752C87.6542 19.1009 87.9161 18.8002 88.1878 18.0144L88.4691 17.2675L84.5308 7.06299H87.5281L89.2451 12.1265C89.4779 12.8637 89.7107 13.6009 89.9241 14.3381C90.1472 13.6009 90.3703 12.854 90.6128 12.1265L92.3394 7.06299H95.3077L90.7971 18.8875C90.1472 20.5947 89.1578 21.361 87.5669 21.361H85.6754Z" fill="var(--fill-0, #0D0D0D)"/>
<path id="Vector_8" d="M80.361 17.5389C77.2764 17.5389 75.22 15.3661 75.22 12.1942C75.22 9.02223 77.2861 6.82999 80.361 6.82999C83.0577 6.82999 84.988 8.50812 85.1723 10.8944H82.4078C82.2623 9.84674 81.5445 9.13863 80.3998 9.13863C78.9545 9.13863 78.1009 10.322 78.1009 12.1942C78.1009 14.0566 78.9642 15.2303 80.3998 15.2303C81.5542 15.2303 82.2041 14.5319 82.3884 13.4552H85.1723C85.0462 15.822 83.0868 17.5389 80.361 17.5389Z" fill="var(--fill-0, #0D0D0D)"/>
<path id="Vector_9" d="M67.8011 11.6126V17.3066H64.9395V7.06323H67.7526V8.67345C68.4413 7.50944 69.4792 6.84983 70.9536 6.84983C73.1361 6.84983 74.5427 8.30485 74.5427 10.8948V17.3066H71.6908V11.4186C71.6908 10.0412 71.0021 9.31366 69.809 9.31366C68.6256 9.31366 67.8011 10.0218 67.8011 11.6126Z" fill="var(--fill-0, #0D0D0D)"/>
<path id="Vector_10" d="M59.3728 17.5389C56.2688 17.5389 54.2512 15.3079 54.2512 12.1942C54.2512 9.07073 56.3367 6.82999 59.2758 6.82999C62.2926 6.82999 64.3199 9.01253 64.3199 12.136V12.9023H57.0351C57.0836 14.4155 57.9566 15.3952 59.4601 15.3952C60.5757 15.3952 61.342 14.8811 61.6039 14.0857H64.2132C63.8349 16.1227 61.8561 17.5389 59.3728 17.5389ZM57.0545 11.0787H61.6233C61.4778 9.79824 60.6242 9.00283 59.334 9.00283C58.0536 9.00283 57.2097 9.79824 57.0545 11.0787Z" fill="var(--fill-0, #0D0D0D)"/>
<path id="Vector_11" d="M48.5782 21.497C45.6681 21.497 44.087 20.1681 43.796 18.1796H46.5508C46.7545 18.9556 47.5111 19.3921 48.5782 19.3921C49.975 19.3921 50.7607 18.6161 50.7607 17.1417V15.5703H50.751C50.1399 16.7731 49.0632 17.3163 47.7245 17.3163C45.0473 17.3163 43.2916 15.1628 43.2916 12.1073C43.2916 9.03236 45.0861 6.84983 47.7051 6.84983C49.0341 6.84983 50.1011 7.41244 50.751 8.54735H50.7607V7.06323H53.5834V16.9089C53.5834 20.1584 51.5464 21.497 48.5782 21.497ZM48.4618 15.027C49.9071 15.027 50.8674 13.863 50.8674 12.0685C50.8674 10.2837 49.9071 9.11966 48.4618 9.11966C47.0746 9.11966 46.1725 10.1867 46.1725 12.0685C46.1725 13.9503 47.0746 15.027 48.4618 15.027Z" fill="var(--fill-0, #0D0D0D)"/>
<path id="Vector_12" d="M29.9949 17.3064L35.068 2.85322H38.9093L43.9825 17.3064H40.6747L39.6659 14.1539H34.2629L33.2153 17.3064H29.9949ZM35.068 11.7676H38.8899L38.4049 10.2738C37.9587 8.7994 37.5125 7.32498 36.9984 5.53046C36.4746 7.32498 36.0283 8.7994 35.5627 10.2738L35.068 11.7676Z" fill="var(--fill-0, #0D0D0D)"/>
</g>
</g>
</svg>
