<svg preserveAspectRatio="none" width="100%" height="100%" overflow="visible" style="display: block;" viewBox="0 0 15.2353 15.2353" fill="none" xmlns="http://www.w3.org/2000/svg">
<path id="Vector" d="M6.75 0C10.476 0 13.5 3.024 13.5 6.75C13.5 10.476 10.476 13.5 6.75 13.5C3.024 13.5 0 10.476 0 6.75C0 3.024 3.024 0 6.75 0ZM6.75 12C9.65063 12 12 9.65063 12 6.75C12 3.84938 9.65063 1.50001 6.75 1.50001C3.84938 1.50001 1.50001 3.84938 1.50001 6.75C1.50001 9.65063 3.84938 12 6.75 12ZM13.114 12.0534L15.2353 14.1747L14.1746 15.2353L12.0533 13.114L13.114 12.0534Z" fill="var(--fill-0, black)"/>
</svg>
