<svg preserveAspectRatio="none" width="100%" height="100%" overflow="visible" style="display: block;" viewBox="0 0 16.125 16.125" fill="none" xmlns="http://www.w3.org/2000/svg">
<path id="Vector" fill-rule="evenodd" clip-rule="evenodd" d="M0 8.0625C0 3.60971 3.60971 0 8.0625 0C12.5153 0 16.125 3.60971 16.125 8.0625C16.125 12.5153 12.5153 16.125 8.0625 16.125C3.60971 16.125 0 12.5153 0 8.0625ZM4.5 5.8125C4.5 5.08763 5.08763 4.5 5.8125 4.5C6.53737 4.5 7.125 5.08763 7.125 5.8125C7.125 6.53737 6.53737 7.125 5.8125 7.125C5.08763 7.125 4.5 6.53737 4.5 5.8125ZM9 10.3125C9 9.58763 9.58763 9 10.3125 9C11.0374 9 11.625 9.58763 11.625 10.3125C11.625 11.0374 11.0374 11.625 10.3125 11.625C9.58763 11.625 9 11.0374 9 10.3125ZM11.5928 5.59283C11.8857 5.29994 11.8857 4.82507 11.5928 4.53217C11.2999 4.23928 10.8251 4.23928 10.5322 4.53217L4.53217 10.5322C4.23928 10.8251 4.23928 11.2999 4.53217 11.5928C4.82507 11.8857 5.29994 11.8857 5.59283 11.5928L11.5928 5.59283Z" fill="var(--fill-0, black)"/>
</svg>
