<svg preserveAspectRatio="none" width="100%" height="100%" overflow="visible" style="display: block;" viewBox="0 0 14.625 15.375" fill="none" xmlns="http://www.w3.org/2000/svg">
<path id="Vector" d="M7.3125 0C7.67918 0 8.03557 0.12078 8.32687 0.343508L13.8157 4.54028L13.9087 4.61573C14.3621 5.00615 14.625 5.57644 14.625 6.17871V13.3125C14.625 14.4516 13.7016 15.375 12.5625 15.375H2.0625C0.923415 15.375 0 14.4516 0 13.3125V6.17871C1.5e-05 5.53638 0.299122 4.93051 0.809325 4.54028L6.29813 0.343508L6.41017 0.264405C6.67852 0.0921375 6.99165 0 7.3125 0ZM10.1543 10.9768C9.91575 10.6704 9.48682 10.5998 9.16477 10.8017C8.69925 11.1641 8.01127 11.4375 7.3125 11.4375C6.70103 11.4375 6.14588 11.2621 5.70484 10.9754L5.4602 10.8017C5.1382 10.5998 4.70922 10.6704 4.47071 10.9768C4.23219 11.2833 4.2689 11.717 4.54394 11.9795L4.7417 12.1333C5.45445 12.641 6.35002 12.9375 7.3125 12.9375C8.33895 12.9375 9.34732 12.5506 10.081 11.9795C10.3561 11.7169 10.3929 11.2834 10.1543 10.9768Z" fill="var(--fill-0, black)"/>
</svg>
