<svg preserveAspectRatio="none" width="100%" height="100%" overflow="visible" style="display: block;" viewBox="0 0 6.74998 6.74998" fill="none" xmlns="http://www.w3.org/2000/svg">
<path id="Vector" d="M2.98512 0.271446C3.11905 -0.0904819 3.63095 -0.0904819 3.76488 0.271446L4.36514 1.89363C4.44936 2.12121 4.62879 2.30064 4.85637 2.38486L6.47857 2.98512C6.84045 3.11905 6.84045 3.63095 6.47857 3.76488L4.85637 4.36514C4.62879 4.44936 4.44936 4.62879 4.36514 4.85637L3.76488 6.47857C3.63095 6.84045 3.11905 6.84045 2.98512 6.47857L2.38486 4.85637C2.30064 4.62879 2.12121 4.44936 1.89363 4.36514L0.271446 3.76488C-0.0904819 3.63095 -0.0904819 3.11905 0.271446 2.98512L1.89363 2.38486C2.12121 2.30064 2.30064 2.12121 2.38486 1.89363L2.98512 0.271446Z" fill="var(--fill-0, black)"/>
</svg>
